<?xml version="1.0" encoding="UTF-8" standalone="no"?>
<svg
   width="61"
   height="61"
   viewBox="0 0 61 61"
   fill="none"
   version="1.1"
   id="svg11"
   sodipodi:docname="janestreet.svg"
   inkscape:version="1.4.2 (ebf0e940, 2025-05-08)"
   inkscape:export-filename="janestreet.png"
   inkscape:export-xdpi="96"
   inkscape:export-ydpi="96"
   xmlns:inkscape="http://www.inkscape.org/namespaces/inkscape"
   xmlns:sodipodi="http://sodipodi.sourceforge.net/DTD/sodipodi-0.dtd"
   xmlns="http://www.w3.org/2000/svg"
   xmlns:svg="http://www.w3.org/2000/svg">
  <defs
     id="defs11" />
  <sodipodi:namedview
     id="namedview11"
     pagecolor="#ffffff"
     bordercolor="#000000"
     borderopacity="0.25"
     inkscape:showpageshadow="2"
     inkscape:pageopacity="0.0"
     inkscape:pagecheckerboard="0"
     inkscape:deskcolor="#d1d1d1"
     inkscape:zoom="2.289545"
     inkscape:cx="47.826096"
     inkscape:cy="29.045072"
     inkscape:window-width="1472"
     inkscape:window-height="894"
     inkscape:window-x="0"
     inkscape:window-y="34"
     inkscape:window-maximized="0"
     inkscape:current-layer="svg11"
     inkscape:export-bgcolor="#ffffffff"
     inkscape:document-units="in" />
  <path
     d="m 10.110689,41.910799 3.009452,-1.576436 c 0.150525,-0.07507 0.376251,0 0.45145,0.150148 3.536153,5.780476 9.780883,9.609143 17.003715,9.609143 10.834184,-0.07507 19.561641,-8.858399 19.561641,-19.66873 0,-10.810206 -8.877982,-19.593579 -19.712167,-19.518518 -10.834184,0 -19.636953,8.85846 -19.561717,19.668666 0,1.276265 0.150475,2.47733 0.376189,3.678519 0.07524,0.225222 -0.07524,0.375371 -0.30095,0.450446 l -3.3104415,0.825692 c -0.150475,0.07507 -0.376187,-0.07507 -0.451425,-0.225098 -0.30095,-1.501487 -0.451425,-3.077923 -0.451425,-4.654484 0,-13.062437 10.6084585,-23.7975805 23.6997695,-23.7975805 13.091312,0 23.850296,10.5849945 23.850296,23.6474315 0,13.062437 -10.608459,23.797568 -23.69977,23.797568 -8.802783,0 -16.477064,-4.729434 -20.6150935,-11.786172 -0.07523,-0.225224 0,-0.450447 0.1504765,-0.600595 z m 32.878752,-6.305995 3.009503,1.651635 c 0.150525,0.07507 0.45145,0 0.52665,-0.150148 C 47.35317,35.079408 47.80462,32.902253 47.87982,30.650147 47.95515,21.041005 40.205664,13.233649 30.650505,13.158575 H 30.49998 c -9.479833,0 -17.229314,7.732282 -17.37984,17.191274 -0.0752,9.534067 7.674282,17.341424 17.22944,17.4165 h 0.1504 c 4.514254,0 8.652383,-1.726585 11.737086,-4.65436 0.150525,-0.150148 0.150525,-0.375371 0.0752,-0.52552 l -2.558052,-2.32718 c -0.150399,-0.150149 -0.376125,-0.07507 -0.52665,0 -2.332327,2.026882 -5.417029,3.303147 -8.727582,3.303147 h -0.0752 c -7.298031,-0.07507 -13.166511,-6.005698 -13.091311,-13.28766 0.0752,-7.206762 6.019005,-13.062437 13.166511,-13.062437 h 0.07533 c 7.298031,0.07507 13.166511,6.005823 13.091311,13.28766 0,1.576561 -0.301051,3.077923 -0.827701,4.504336 -0.0752,0.300297 0,0.450321 0.150525,0.600469 z M 47.955146,5.8766375 c -0.150526,-0.07507 -0.376251,-0.07507 -0.526651,0.07507 l -1.881002,2.777639 c -0.0752,0.150136 -0.0752,0.375346 0.0752,0.525495 6.620981,4.7295475 10.98471,12.4618295 10.98471,21.2451525 0,14.338576 -11.737085,26.049799 -26.107422,26.049799 C 16.129643,56.474723 4.4678835,44.83857 4.4678835,30.499994 c 0,-14.338575 11.7370855,-26.0497105 26.1074225,-26.0497105 3.159902,0 6.094205,0.525495 8.877982,1.576499 0.150526,0.07506 0.376125,0 0.451451,-0.225223 l 1.203826,-3.152986 c 0.0752,-0.150148 0,-0.375359 -0.225725,-0.450433 -3.235228,-1.201138 -6.771381,-1.87678 -10.38286,-1.87678 -16.627463,0 -30.2453865,13.5128795 -30.2453865,30.1786335 0,16.590806 13.5427235,30.178646 30.2453865,30.178646 16.627465,0 30.245426,-13.512766 30.245426,-30.178646 0,-10.209737 -5.040904,-19.143159 -12.79026,-24.6233605 z"
     fill="#000000"
     id="path11"
     style="stroke-width:1.25542" />
</svg>
